<svg width="156" height="156" viewBox="0 0 156 156" fill="none" xmlns="http://www.w3.org/2000/svg">
<path d="M69.6 18.8H86.4C87.06 18.8 87.6 19.34 87.6 20V26H68.4V20C68.4 19.34 68.94 18.8 69.6 18.8ZM61.2 20V83.6H94.8V20C94.8 15.365 91.035 11.6 86.4 11.6H69.6C64.965 11.6 61.2 15.365 61.2 20ZM102 26V83.6H106.8C112.095 83.6 116.4 79.295 116.4 74V35.6C116.4 30.305 112.095 26 106.8 26H102ZM54 83.6V26H49.2C43.905 26 39.6 30.305 39.6 35.6V74C39.6 79.295 43.905 83.6 49.2 83.6H54Z" fill="#EFE9E7"/>
<path d="M26.3125 106.25H34.3594C36.0885 106.25 37.5625 106.51 38.7812 107.031C40 107.552 40.9323 108.323 41.5781 109.344C42.2344 110.354 42.5625 111.604 42.5625 113.094C42.5625 114.229 42.3542 115.229 41.9375 116.094C41.5208 116.958 40.9323 117.688 40.1719 118.281C39.4115 118.865 38.5052 119.318 37.4531 119.641L36.2656 120.219H29.0312L29 117.109H34.4219C35.3594 117.109 36.1406 116.943 36.7656 116.609C37.3906 116.276 37.8594 115.823 38.1719 115.25C38.4948 114.667 38.6562 114.01 38.6562 113.281C38.6562 112.49 38.5 111.802 38.1875 111.219C37.8854 110.625 37.4167 110.172 36.7812 109.859C36.1458 109.536 35.3385 109.375 34.3594 109.375H30.2344V129H26.3125V106.25ZM39.2969 129L33.9531 118.781L38.0625 118.766L43.4844 128.797V129H39.2969Z" fill="#EFE9E7"/>
<path d="M53.5469 129.312C52.2969 129.312 51.1667 129.109 50.1562 128.703C49.1562 128.286 48.3021 127.708 47.5938 126.969C46.8958 126.229 46.3594 125.359 45.9844 124.359C45.6094 123.359 45.4219 122.281 45.4219 121.125V120.5C45.4219 119.177 45.6146 117.979 46 116.906C46.3854 115.833 46.9219 114.917 47.6094 114.156C48.2969 113.385 49.1094 112.797 50.0469 112.391C50.9844 111.984 52 111.781 53.0938 111.781C54.3021 111.781 55.3594 111.984 56.2656 112.391C57.1719 112.797 57.9219 113.37 58.5156 114.109C59.1198 114.839 59.5677 115.708 59.8594 116.719C60.1615 117.729 60.3125 118.844 60.3125 120.062V121.672H47.25V118.969H56.5938V118.672C56.5729 117.995 56.4375 117.359 56.1875 116.766C55.9479 116.172 55.5781 115.693 55.0781 115.328C54.5781 114.964 53.9115 114.781 53.0781 114.781C52.4531 114.781 51.8958 114.917 51.4062 115.188C50.9271 115.448 50.526 115.828 50.2031 116.328C49.8802 116.828 49.6302 117.432 49.4531 118.141C49.2865 118.839 49.2031 119.625 49.2031 120.5V121.125C49.2031 121.865 49.3021 122.552 49.5 123.188C49.7083 123.812 50.0104 124.359 50.4062 124.828C50.8021 125.297 51.2812 125.667 51.8438 125.938C52.4062 126.198 53.0469 126.328 53.7656 126.328C54.6719 126.328 55.4792 126.146 56.1875 125.781C56.8958 125.417 57.5104 124.901 58.0312 124.234L60.0156 126.156C59.651 126.688 59.1771 127.198 58.5938 127.688C58.0104 128.167 57.2969 128.557 56.4531 128.859C55.6198 129.161 54.651 129.312 53.5469 129.312Z" fill="#EFE9E7"/>
<path d="M72.7344 124.422C72.7344 124.047 72.6406 123.708 72.4531 123.406C72.2656 123.094 71.9062 122.812 71.375 122.562C70.8542 122.312 70.0833 122.083 69.0625 121.875C68.1667 121.677 67.3438 121.443 66.5938 121.172C65.8542 120.891 65.2188 120.552 64.6875 120.156C64.1562 119.76 63.7448 119.292 63.4531 118.75C63.1615 118.208 63.0156 117.583 63.0156 116.875C63.0156 116.188 63.1667 115.536 63.4688 114.922C63.7708 114.307 64.2031 113.766 64.7656 113.297C65.3281 112.828 66.0104 112.458 66.8125 112.188C67.625 111.917 68.5312 111.781 69.5312 111.781C70.9479 111.781 72.1615 112.021 73.1719 112.5C74.1927 112.969 74.974 113.609 75.5156 114.422C76.0573 115.224 76.3281 116.13 76.3281 117.141H72.5625C72.5625 116.693 72.4479 116.276 72.2188 115.891C72 115.495 71.6667 115.177 71.2188 114.938C70.7708 114.688 70.2083 114.562 69.5312 114.562C68.8854 114.562 68.349 114.667 67.9219 114.875C67.5052 115.073 67.1927 115.333 66.9844 115.656C66.7865 115.979 66.6875 116.333 66.6875 116.719C66.6875 117 66.7396 117.255 66.8438 117.484C66.9583 117.703 67.1458 117.906 67.4062 118.094C67.6667 118.271 68.0208 118.438 68.4688 118.594C68.9271 118.75 69.5 118.901 70.1875 119.047C71.4792 119.318 72.5885 119.667 73.5156 120.094C74.4531 120.51 75.1719 121.052 75.6719 121.719C76.1719 122.375 76.4219 123.208 76.4219 124.219C76.4219 124.969 76.2604 125.656 75.9375 126.281C75.625 126.896 75.1667 127.432 74.5625 127.891C73.9583 128.339 73.2344 128.688 72.3906 128.938C71.5573 129.188 70.6198 129.312 69.5781 129.312C68.0469 129.312 66.75 129.042 65.6875 128.5C64.625 127.948 63.8177 127.245 63.2656 126.391C62.724 125.526 62.4531 124.63 62.4531 123.703H66.0938C66.1354 124.401 66.3281 124.958 66.6719 125.375C67.026 125.781 67.4635 126.078 67.9844 126.266C68.5156 126.443 69.0625 126.531 69.625 126.531C70.3021 126.531 70.8698 126.443 71.3281 126.266C71.7865 126.078 72.1354 125.828 72.375 125.516C72.6146 125.193 72.7344 124.828 72.7344 124.422Z" fill="#EFE9E7"/>
<path d="M89.8906 125.016V112.094H93.6719V129H90.1094L89.8906 125.016ZM90.4219 121.5L91.6875 121.469C91.6875 122.604 91.5625 123.651 91.3125 124.609C91.0625 125.557 90.6771 126.385 90.1562 127.094C89.6354 127.792 88.9688 128.339 88.1562 128.734C87.3438 129.12 86.3698 129.312 85.2344 129.312C84.4115 129.312 83.6562 129.193 82.9688 128.953C82.2812 128.714 81.6875 128.344 81.1875 127.844C80.6979 127.344 80.3177 126.693 80.0469 125.891C79.776 125.089 79.6406 124.13 79.6406 123.016V112.094H83.4062V123.047C83.4062 123.661 83.4792 124.177 83.625 124.594C83.7708 125 83.9688 125.328 84.2188 125.578C84.4688 125.828 84.7604 126.005 85.0938 126.109C85.4271 126.214 85.7812 126.266 86.1562 126.266C87.2292 126.266 88.0729 126.057 88.6875 125.641C89.3125 125.214 89.7552 124.641 90.0156 123.922C90.2865 123.203 90.4219 122.396 90.4219 121.5Z" fill="#EFE9E7"/>
<path d="M101.297 115.531V129H97.5312V112.094H101.078L101.297 115.531ZM100.688 119.922L99.4062 119.906C99.4062 118.74 99.5521 117.661 99.8438 116.672C100.135 115.682 100.562 114.823 101.125 114.094C101.688 113.354 102.385 112.786 103.219 112.391C104.062 111.984 105.036 111.781 106.141 111.781C106.911 111.781 107.615 111.896 108.25 112.125C108.896 112.344 109.453 112.693 109.922 113.172C110.401 113.651 110.766 114.266 111.016 115.016C111.276 115.766 111.406 116.672 111.406 117.734V129H107.641V118.062C107.641 117.24 107.516 116.594 107.266 116.125C107.026 115.656 106.677 115.323 106.219 115.125C105.771 114.917 105.234 114.812 104.609 114.812C103.901 114.812 103.297 114.948 102.797 115.219C102.307 115.49 101.906 115.859 101.594 116.328C101.281 116.797 101.052 117.339 100.906 117.953C100.76 118.568 100.688 119.224 100.688 119.922ZM111.172 118.922L109.406 119.312C109.406 118.292 109.547 117.328 109.828 116.422C110.12 115.505 110.542 114.703 111.094 114.016C111.656 113.318 112.349 112.771 113.172 112.375C113.995 111.979 114.938 111.781 116 111.781C116.865 111.781 117.635 111.901 118.312 112.141C119 112.37 119.583 112.734 120.062 113.234C120.542 113.734 120.906 114.385 121.156 115.188C121.406 115.979 121.531 116.938 121.531 118.062V129H117.75V118.047C117.75 117.193 117.625 116.531 117.375 116.062C117.135 115.594 116.792 115.271 116.344 115.094C115.896 114.906 115.359 114.812 114.734 114.812C114.151 114.812 113.635 114.922 113.188 115.141C112.75 115.349 112.38 115.646 112.078 116.031C111.776 116.406 111.547 116.839 111.391 117.328C111.245 117.818 111.172 118.349 111.172 118.922Z" fill="#EFE9E7"/>
<path d="M129.438 112.094V129H125.656V112.094H129.438ZM125.406 107.656C125.406 107.083 125.594 106.609 125.969 106.234C126.354 105.849 126.885 105.656 127.562 105.656C128.229 105.656 128.755 105.849 129.141 106.234C129.526 106.609 129.719 107.083 129.719 107.656C129.719 108.219 129.526 108.688 129.141 109.062C128.755 109.438 128.229 109.625 127.562 109.625C126.885 109.625 126.354 109.438 125.969 109.062C125.594 108.688 125.406 108.219 125.406 107.656Z" fill="#EFE9E7"/>
<path d="M27.7651 147.083H25.7295V146.015H27.7651C28.1196 146.015 28.4061 145.957 28.6245 145.843C28.8429 145.728 29.0023 145.571 29.1025 145.37C29.2064 145.166 29.2583 144.933 29.2583 144.672C29.2583 144.425 29.2064 144.194 29.1025 143.979C29.0023 143.761 28.8429 143.585 28.6245 143.453C28.4061 143.32 28.1196 143.254 27.7651 143.254H26.1431V150H24.7949V142.18H27.7651C28.3703 142.18 28.8841 142.287 29.3066 142.502C29.7327 142.713 30.0568 143.007 30.2788 143.383C30.5008 143.755 30.6118 144.181 30.6118 144.661C30.6118 145.166 30.5008 145.599 30.2788 145.961C30.0568 146.323 29.7327 146.6 29.3066 146.793C28.8841 146.987 28.3703 147.083 27.7651 147.083Z" fill="#EFE9E7"/>
<path d="M33.4912 145.295V150H32.1968V144.188H33.4321L33.4912 145.295ZM35.269 144.151L35.2583 145.354C35.1795 145.34 35.0936 145.329 35.0005 145.322C34.911 145.315 34.8215 145.311 34.7319 145.311C34.5099 145.311 34.3148 145.343 34.1465 145.408C33.9782 145.469 33.8368 145.558 33.7222 145.676C33.6112 145.791 33.5252 145.931 33.4644 146.095C33.4035 146.26 33.3677 146.444 33.3569 146.648L33.0615 146.67C33.0615 146.305 33.0973 145.966 33.1689 145.655C33.2406 145.343 33.348 145.069 33.4912 144.833C33.638 144.597 33.8206 144.412 34.0391 144.28C34.2611 144.147 34.5171 144.081 34.8071 144.081C34.8859 144.081 34.9701 144.088 35.0596 144.103C35.1527 144.117 35.2225 144.133 35.269 144.151Z" fill="#EFE9E7"/>
<path d="M36.1934 147.159V147.035C36.1934 146.616 36.2542 146.228 36.376 145.87C36.4977 145.508 36.6732 145.195 36.9023 144.93C37.1351 144.661 37.418 144.453 37.751 144.307C38.0876 144.156 38.4671 144.081 38.8896 144.081C39.3158 144.081 39.6953 144.156 40.0283 144.307C40.3649 144.453 40.6496 144.661 40.8823 144.93C41.1151 145.195 41.2923 145.508 41.4141 145.87C41.5358 146.228 41.5967 146.616 41.5967 147.035V147.159C41.5967 147.578 41.5358 147.966 41.4141 148.324C41.2923 148.682 41.1151 148.996 40.8823 149.264C40.6496 149.529 40.3667 149.737 40.0337 149.887C39.7007 150.034 39.3229 150.107 38.9004 150.107C38.4743 150.107 38.0929 150.034 37.7563 149.887C37.4233 149.737 37.1405 149.529 36.9077 149.264C36.675 148.996 36.4977 148.682 36.376 148.324C36.2542 147.966 36.1934 147.578 36.1934 147.159ZM37.4878 147.035V147.159C37.4878 147.42 37.5146 147.667 37.5684 147.9C37.6221 148.133 37.7062 148.337 37.8208 148.512C37.9354 148.688 38.0822 148.826 38.2612 148.926C38.4403 149.026 38.6533 149.076 38.9004 149.076C39.1403 149.076 39.348 149.026 39.5234 148.926C39.7025 148.826 39.8493 148.688 39.9639 148.512C40.0785 148.337 40.1626 148.133 40.2163 147.9C40.2736 147.667 40.3022 147.42 40.3022 147.159V147.035C40.3022 146.777 40.2736 146.534 40.2163 146.305C40.1626 146.072 40.0767 145.866 39.9585 145.687C39.8439 145.508 39.6971 145.368 39.5181 145.268C39.3426 145.164 39.1331 145.112 38.8896 145.112C38.6462 145.112 38.4349 145.164 38.2559 145.268C38.0804 145.368 37.9354 145.508 37.8208 145.687C37.7062 145.866 37.6221 146.072 37.5684 146.305C37.5146 146.534 37.4878 146.777 37.4878 147.035Z" fill="#EFE9E7"/>
<path d="M44.4653 145.429V150H43.1709V144.188H44.3901L44.4653 145.429ZM44.2344 146.879L43.8154 146.874C43.819 146.462 43.8763 146.084 43.9873 145.741C44.1019 145.397 44.2594 145.102 44.46 144.854C44.6641 144.607 44.9076 144.418 45.1904 144.285C45.4733 144.149 45.7884 144.081 46.1357 144.081C46.415 144.081 46.6675 144.12 46.8931 144.199C47.1222 144.274 47.3174 144.398 47.4785 144.57C47.6432 144.742 47.7686 144.965 47.8545 145.241C47.9404 145.513 47.9834 145.848 47.9834 146.246V150H46.6836V146.24C46.6836 145.961 46.6424 145.741 46.5601 145.58C46.4813 145.415 46.3649 145.299 46.2109 145.23C46.0605 145.159 45.8726 145.123 45.647 145.123C45.425 145.123 45.2262 145.17 45.0508 145.263C44.8753 145.356 44.7267 145.483 44.605 145.644C44.4868 145.805 44.3955 145.991 44.3311 146.203C44.2666 146.414 44.2344 146.639 44.2344 146.879Z" fill="#EFE9E7"/>
<path d="M52.4688 144.188V145.134H49.1924V144.188H52.4688ZM50.1377 142.765H51.4321V148.394C51.4321 148.573 51.4572 148.711 51.5073 148.808C51.561 148.901 51.6344 148.963 51.7275 148.996C51.8206 149.028 51.9299 149.044 52.0552 149.044C52.1447 149.044 52.2306 149.039 52.313 149.028C52.3953 149.017 52.4616 149.006 52.5117 148.996L52.5171 149.984C52.4097 150.016 52.2843 150.045 52.1411 150.07C52.0015 150.095 51.8403 150.107 51.6577 150.107C51.3605 150.107 51.0973 150.056 50.8682 149.952C50.639 149.844 50.46 149.671 50.3311 149.431C50.2021 149.191 50.1377 148.872 50.1377 148.475V142.765Z" fill="#EFE9E7"/>
<path d="M53.5918 147.159V147.035C53.5918 146.616 53.6527 146.228 53.7744 145.87C53.8962 145.508 54.0716 145.195 54.3008 144.93C54.5335 144.661 54.8164 144.453 55.1494 144.307C55.486 144.156 55.8656 144.081 56.2881 144.081C56.7142 144.081 57.0938 144.156 57.4268 144.307C57.7633 144.453 58.048 144.661 58.2808 144.93C58.5135 145.195 58.6908 145.508 58.8125 145.87C58.9342 146.228 58.9951 146.616 58.9951 147.035V147.159C58.9951 147.578 58.9342 147.966 58.8125 148.324C58.6908 148.682 58.5135 148.996 58.2808 149.264C58.048 149.529 57.7651 149.737 57.4321 149.887C57.0991 150.034 56.7214 150.107 56.2988 150.107C55.8727 150.107 55.4914 150.034 55.1548 149.887C54.8218 149.737 54.5389 149.529 54.3062 149.264C54.0734 148.996 53.8962 148.682 53.7744 148.324C53.6527 147.966 53.5918 147.578 53.5918 147.159ZM54.8862 147.035V147.159C54.8862 147.42 54.9131 147.667 54.9668 147.9C55.0205 148.133 55.1047 148.337 55.2192 148.512C55.3338 148.688 55.4806 148.826 55.6597 148.926C55.8387 149.026 56.0518 149.076 56.2988 149.076C56.5387 149.076 56.7464 149.026 56.9219 148.926C57.1009 148.826 57.2477 148.688 57.3623 148.512C57.4769 148.337 57.561 148.133 57.6147 147.9C57.672 147.667 57.7007 147.42 57.7007 147.159V147.035C57.7007 146.777 57.672 146.534 57.6147 146.305C57.561 146.072 57.4751 145.866 57.3569 145.687C57.2424 145.508 57.0955 145.368 56.9165 145.268C56.741 145.164 56.5316 145.112 56.2881 145.112C56.0446 145.112 55.8333 145.164 55.6543 145.268C55.4788 145.368 55.3338 145.508 55.2192 145.687C55.1047 145.866 55.0205 146.072 54.9668 146.305C54.9131 146.534 54.8862 146.777 54.8862 147.035Z" fill="#EFE9E7"/>
<path d="M65.1191 145.306V152.234H63.8247V144.188H65.0171L65.1191 145.306ZM68.9058 147.041V147.153C68.9058 147.576 68.8556 147.968 68.7554 148.33C68.6587 148.688 68.5137 149.001 68.3203 149.27C68.1305 149.535 67.896 149.74 67.6167 149.887C67.3374 150.034 67.0151 150.107 66.6499 150.107C66.2882 150.107 65.9714 150.041 65.6992 149.909C65.4307 149.773 65.2033 149.581 65.0171 149.334C64.8309 149.087 64.6805 148.797 64.5659 148.464C64.4549 148.127 64.3761 147.758 64.3296 147.357V146.922C64.3761 146.496 64.4549 146.11 64.5659 145.762C64.6805 145.415 64.8309 145.116 65.0171 144.865C65.2033 144.615 65.4307 144.421 65.6992 144.285C65.9678 144.149 66.2811 144.081 66.6392 144.081C67.0044 144.081 67.3285 144.153 67.6113 144.296C67.8942 144.436 68.1323 144.636 68.3257 144.897C68.519 145.155 68.6641 145.467 68.7607 145.832C68.8574 146.194 68.9058 146.597 68.9058 147.041ZM67.6113 147.153V147.041C67.6113 146.772 67.5863 146.523 67.5361 146.294C67.486 146.061 67.4072 145.857 67.2998 145.682C67.1924 145.506 67.0545 145.37 66.8862 145.273C66.7215 145.173 66.5228 145.123 66.29 145.123C66.0609 145.123 65.8639 145.162 65.6992 145.241C65.5345 145.316 65.3966 145.422 65.2856 145.558C65.1746 145.694 65.0887 145.854 65.0278 146.036C64.967 146.215 64.924 146.41 64.8989 146.622V147.664C64.9419 147.921 65.0153 148.158 65.1191 148.373C65.223 148.587 65.3698 148.759 65.5596 148.888C65.7529 149.014 66 149.076 66.3008 149.076C66.5335 149.076 66.7323 149.026 66.897 148.926C67.0617 148.826 67.196 148.688 67.2998 148.512C67.4072 148.333 67.486 148.127 67.5361 147.895C67.5863 147.662 67.6113 147.415 67.6113 147.153Z" fill="#EFE9E7"/>
<path d="M73.7832 148.834V146.063C73.7832 145.855 73.7456 145.676 73.6704 145.526C73.5952 145.375 73.4806 145.259 73.3267 145.177C73.1763 145.094 72.9865 145.053 72.7573 145.053C72.5461 145.053 72.3634 145.089 72.2095 145.161C72.0555 145.232 71.9355 145.329 71.8496 145.451C71.7637 145.572 71.7207 145.71 71.7207 145.864H70.4316C70.4316 145.635 70.4871 145.413 70.5981 145.198C70.7091 144.983 70.8703 144.792 71.0815 144.624C71.2928 144.455 71.5452 144.323 71.8389 144.226C72.1325 144.129 72.4619 144.081 72.8271 144.081C73.264 144.081 73.6507 144.154 73.9873 144.301C74.3275 144.448 74.5942 144.67 74.7876 144.967C74.9845 145.261 75.083 145.63 75.083 146.074V148.657C75.083 148.922 75.1009 149.16 75.1367 149.372C75.1761 149.579 75.2316 149.76 75.3032 149.914V150H73.9766C73.9157 149.86 73.8674 149.683 73.8315 149.468C73.7993 149.25 73.7832 149.039 73.7832 148.834ZM73.9712 146.466L73.9819 147.266H73.0527C72.8128 147.266 72.6016 147.289 72.4189 147.336C72.2363 147.379 72.0841 147.443 71.9624 147.529C71.8407 147.615 71.7493 147.719 71.6885 147.841C71.6276 147.963 71.5972 148.1 71.5972 148.254C71.5972 148.408 71.633 148.55 71.7046 148.679C71.7762 148.804 71.88 148.903 72.0161 148.974C72.1558 149.046 72.3241 149.082 72.521 149.082C72.786 149.082 73.0169 149.028 73.2139 148.92C73.4144 148.809 73.5719 148.675 73.6865 148.518C73.8011 148.356 73.862 148.204 73.8691 148.061L74.2881 148.636C74.2451 148.783 74.1717 148.94 74.0679 149.108C73.964 149.277 73.828 149.438 73.6597 149.592C73.495 149.742 73.2962 149.866 73.0635 149.962C72.8343 150.059 72.5693 150.107 72.2686 150.107C71.889 150.107 71.5506 150.032 71.2534 149.882C70.9562 149.728 70.7235 149.522 70.5552 149.264C70.3869 149.003 70.3027 148.707 70.3027 148.378C70.3027 148.07 70.36 147.798 70.4746 147.562C70.5928 147.322 70.7646 147.121 70.9902 146.96C71.2194 146.799 71.4987 146.677 71.8281 146.595C72.1576 146.509 72.5335 146.466 72.9561 146.466H73.9712Z" fill="#EFE9E7"/>
<path d="M78.2363 145.295V150H76.9419V144.188H78.1772L78.2363 145.295ZM80.0142 144.151L80.0034 145.354C79.9246 145.34 79.8387 145.329 79.7456 145.322C79.6561 145.315 79.5666 145.311 79.4771 145.311C79.255 145.311 79.0599 145.343 78.8916 145.408C78.7233 145.469 78.5819 145.558 78.4673 145.676C78.3563 145.791 78.2703 145.931 78.2095 146.095C78.1486 146.26 78.1128 146.444 78.1021 146.648L77.8066 146.67C77.8066 146.305 77.8424 145.966 77.9141 145.655C77.9857 145.343 78.0931 145.069 78.2363 144.833C78.3831 144.597 78.5658 144.412 78.7842 144.28C79.0062 144.147 79.2622 144.081 79.5522 144.081C79.631 144.081 79.7152 144.088 79.8047 144.103C79.8978 144.117 79.9676 144.133 80.0142 144.151Z" fill="#EFE9E7"/>
<path d="M84.4082 148.834V146.063C84.4082 145.855 84.3706 145.676 84.2954 145.526C84.2202 145.375 84.1056 145.259 83.9517 145.177C83.8013 145.094 83.6115 145.053 83.3823 145.053C83.1711 145.053 82.9884 145.089 82.8345 145.161C82.6805 145.232 82.5605 145.329 82.4746 145.451C82.3887 145.572 82.3457 145.71 82.3457 145.864H81.0566C81.0566 145.635 81.1121 145.413 81.2231 145.198C81.3341 144.983 81.4953 144.792 81.7065 144.624C81.9178 144.455 82.1702 144.323 82.4639 144.226C82.7575 144.129 83.0869 144.081 83.4521 144.081C83.889 144.081 84.2757 144.154 84.6123 144.301C84.9525 144.448 85.2192 144.67 85.4126 144.967C85.6095 145.261 85.708 145.63 85.708 146.074V148.657C85.708 148.922 85.7259 149.16 85.7617 149.372C85.8011 149.579 85.8566 149.76 85.9282 149.914V150H84.6016C84.5407 149.86 84.4924 149.683 84.4565 149.468C84.4243 149.25 84.4082 149.039 84.4082 148.834ZM84.5962 146.466L84.6069 147.266H83.6777C83.4378 147.266 83.2266 147.289 83.0439 147.336C82.8613 147.379 82.7091 147.443 82.5874 147.529C82.4657 147.615 82.3743 147.719 82.3135 147.841C82.2526 147.963 82.2222 148.1 82.2222 148.254C82.2222 148.408 82.258 148.55 82.3296 148.679C82.4012 148.804 82.505 148.903 82.6411 148.974C82.7808 149.046 82.9491 149.082 83.146 149.082C83.411 149.082 83.6419 149.028 83.8389 148.92C84.0394 148.809 84.1969 148.675 84.3115 148.518C84.4261 148.356 84.487 148.204 84.4941 148.061L84.9131 148.636C84.8701 148.783 84.7967 148.94 84.6929 149.108C84.589 149.277 84.453 149.438 84.2847 149.592C84.12 149.742 83.9212 149.866 83.6885 149.962C83.4593 150.059 83.1943 150.107 82.8936 150.107C82.514 150.107 82.1756 150.032 81.8784 149.882C81.5812 149.728 81.3485 149.522 81.1802 149.264C81.0119 149.003 80.9277 148.707 80.9277 148.378C80.9277 148.07 80.985 147.798 81.0996 147.562C81.2178 147.322 81.3896 147.121 81.6152 146.96C81.8444 146.799 82.1237 146.677 82.4531 146.595C82.7826 146.509 83.1585 146.466 83.5811 146.466H84.5962Z" fill="#EFE9E7"/>
<path d="M94.061 148.426C94.061 148.297 94.0288 148.181 93.9644 148.077C93.8999 147.97 93.7764 147.873 93.5938 147.787C93.4147 147.701 93.1497 147.622 92.7988 147.551C92.4909 147.483 92.208 147.402 91.9502 147.309C91.696 147.212 91.4775 147.096 91.2949 146.96C91.1123 146.824 90.9709 146.663 90.8706 146.477C90.7703 146.29 90.7202 146.076 90.7202 145.832C90.7202 145.596 90.7721 145.372 90.876 145.161C90.9798 144.949 91.1284 144.763 91.3218 144.602C91.5151 144.441 91.7497 144.314 92.0254 144.221C92.3047 144.128 92.6162 144.081 92.96 144.081C93.4469 144.081 93.8641 144.163 94.2114 144.328C94.5623 144.489 94.8309 144.709 95.0171 144.989C95.2033 145.264 95.2964 145.576 95.2964 145.923H94.002C94.002 145.769 93.9626 145.626 93.8838 145.494C93.8086 145.358 93.694 145.248 93.54 145.166C93.3861 145.08 93.1927 145.037 92.96 145.037C92.738 145.037 92.5535 145.073 92.4067 145.145C92.2635 145.213 92.1561 145.302 92.0845 145.413C92.0164 145.524 91.9824 145.646 91.9824 145.778C91.9824 145.875 92.0003 145.963 92.0361 146.042C92.0755 146.117 92.14 146.187 92.2295 146.251C92.319 146.312 92.4408 146.369 92.5947 146.423C92.7523 146.477 92.9492 146.528 93.1855 146.579C93.6296 146.672 94.0109 146.792 94.3296 146.938C94.6519 147.082 94.8989 147.268 95.0708 147.497C95.2427 147.723 95.3286 148.009 95.3286 148.356C95.3286 148.614 95.2731 148.851 95.1621 149.065C95.0547 149.277 94.8971 149.461 94.6895 149.619C94.4818 149.773 94.2329 149.893 93.9429 149.979C93.6564 150.064 93.3341 150.107 92.9761 150.107C92.4497 150.107 92.0039 150.014 91.6387 149.828C91.2734 149.638 90.9959 149.397 90.8062 149.103C90.62 148.806 90.5269 148.498 90.5269 148.179H91.7783C91.7926 148.419 91.8589 148.611 91.9771 148.754C92.0988 148.894 92.2492 148.996 92.4282 149.06C92.6108 149.121 92.7988 149.151 92.9922 149.151C93.2249 149.151 93.4201 149.121 93.5776 149.06C93.7352 148.996 93.8551 148.91 93.9375 148.802C94.0199 148.691 94.061 148.566 94.061 148.426Z" fill="#EFE9E7"/>
<path d="M99.5239 150.107C99.0942 150.107 98.7057 150.038 98.3584 149.898C98.0146 149.755 97.721 149.556 97.4775 149.302C97.2376 149.048 97.0532 148.749 96.9243 148.405C96.7954 148.061 96.731 147.69 96.731 147.293V147.078C96.731 146.623 96.7972 146.212 96.9297 145.843C97.0622 145.474 97.2466 145.159 97.4829 144.897C97.7192 144.632 97.9985 144.43 98.3208 144.291C98.6431 144.151 98.9922 144.081 99.3682 144.081C99.7835 144.081 100.147 144.151 100.458 144.291C100.77 144.43 101.028 144.627 101.232 144.881C101.44 145.132 101.594 145.431 101.694 145.778C101.798 146.126 101.85 146.509 101.85 146.928V147.481H97.3594V146.552H100.571V146.45C100.564 146.217 100.518 145.999 100.432 145.794C100.349 145.59 100.222 145.426 100.05 145.3C99.8784 145.175 99.6493 145.112 99.3628 145.112C99.1479 145.112 98.9564 145.159 98.7881 145.252C98.6234 145.341 98.4855 145.472 98.3745 145.644C98.2635 145.816 98.1776 146.024 98.1167 146.267C98.0594 146.507 98.0308 146.777 98.0308 147.078V147.293C98.0308 147.547 98.0648 147.784 98.1328 148.002C98.2044 148.217 98.3083 148.405 98.4443 148.566C98.5804 148.727 98.7451 148.854 98.9385 148.947C99.1318 149.037 99.3521 149.082 99.5991 149.082C99.9106 149.082 100.188 149.019 100.432 148.894C100.675 148.768 100.886 148.591 101.065 148.362L101.748 149.022C101.622 149.205 101.459 149.381 101.259 149.549C101.058 149.714 100.813 149.848 100.523 149.952C100.236 150.056 99.9035 150.107 99.5239 150.107Z" fill="#EFE9E7"/>
<path d="M104.659 145.295V150H103.365V144.188H104.6L104.659 145.295ZM106.437 144.151L106.426 145.354C106.347 145.34 106.262 145.329 106.168 145.322C106.079 145.315 105.989 145.311 105.9 145.311C105.678 145.311 105.483 145.343 105.314 145.408C105.146 145.469 105.005 145.558 104.89 145.676C104.779 145.791 104.693 145.931 104.632 146.095C104.571 146.26 104.536 146.444 104.525 146.648L104.229 146.67C104.229 146.305 104.265 145.966 104.337 145.655C104.409 145.343 104.516 145.069 104.659 144.833C104.806 144.597 104.989 144.412 105.207 144.28C105.429 144.147 105.685 144.081 105.975 144.081C106.054 144.081 106.138 144.088 106.228 144.103C106.321 144.117 106.39 144.133 106.437 144.151Z" fill="#EFE9E7"/>
<path d="M109.735 148.974L111.159 144.188H112.501L110.482 150H109.644L109.735 148.974ZM108.645 144.188L110.095 148.996L110.165 150H109.327L107.297 144.188H108.645Z" fill="#EFE9E7"/>
<path d="M115.188 144.188V150H113.888V144.188H115.188ZM113.802 142.663C113.802 142.466 113.866 142.303 113.995 142.174C114.128 142.042 114.31 141.976 114.543 141.976C114.772 141.976 114.953 142.042 115.085 142.174C115.218 142.303 115.284 142.466 115.284 142.663C115.284 142.856 115.218 143.018 115.085 143.146C114.953 143.275 114.772 143.34 114.543 143.34C114.31 143.34 114.128 143.275 113.995 143.146C113.866 143.018 113.802 142.856 113.802 142.663Z" fill="#EFE9E7"/>
<path d="M119.479 149.076C119.691 149.076 119.881 149.035 120.049 148.953C120.221 148.867 120.359 148.749 120.462 148.598C120.57 148.448 120.629 148.274 120.64 148.077H121.859C121.852 148.453 121.741 148.795 121.526 149.103C121.311 149.411 121.026 149.656 120.672 149.839C120.317 150.018 119.925 150.107 119.496 150.107C119.052 150.107 118.665 150.032 118.335 149.882C118.006 149.728 117.732 149.517 117.514 149.248C117.295 148.979 117.131 148.67 117.02 148.319C116.912 147.968 116.858 147.592 116.858 147.191V147.003C116.858 146.602 116.912 146.226 117.02 145.875C117.131 145.521 117.295 145.209 117.514 144.94C117.732 144.672 118.006 144.462 118.335 144.312C118.665 144.158 119.05 144.081 119.49 144.081C119.956 144.081 120.364 144.174 120.715 144.36C121.066 144.543 121.341 144.799 121.542 145.128C121.746 145.454 121.852 145.834 121.859 146.267H120.64C120.629 146.052 120.575 145.859 120.479 145.687C120.385 145.512 120.253 145.372 120.081 145.268C119.913 145.164 119.71 145.112 119.474 145.112C119.213 145.112 118.996 145.166 118.824 145.273C118.652 145.377 118.518 145.521 118.421 145.703C118.325 145.882 118.255 146.084 118.212 146.31C118.173 146.532 118.153 146.763 118.153 147.003V147.191C118.153 147.431 118.173 147.664 118.212 147.889C118.251 148.115 118.319 148.317 118.416 148.496C118.516 148.672 118.652 148.813 118.824 148.92C118.996 149.024 119.215 149.076 119.479 149.076ZM118.91 150.011H119.872L119.807 150.312C120.011 150.347 120.197 150.433 120.366 150.569C120.538 150.709 120.624 150.933 120.624 151.241C120.624 151.423 120.586 151.588 120.511 151.735C120.436 151.882 120.323 152.007 120.172 152.111C120.026 152.218 119.841 152.301 119.619 152.358C119.401 152.415 119.146 152.444 118.856 152.444L118.819 151.713C118.958 151.713 119.084 151.695 119.195 151.66C119.306 151.627 119.394 151.576 119.458 151.504C119.526 151.432 119.56 151.339 119.56 151.225C119.56 151.114 119.531 151.028 119.474 150.967C119.417 150.906 119.327 150.859 119.206 150.827C119.087 150.795 118.933 150.772 118.744 150.757L118.91 150.011Z" fill="#EFE9E7"/>
<path d="M123.105 147.159V147.035C123.105 146.616 123.166 146.228 123.288 145.87C123.41 145.508 123.585 145.195 123.814 144.93C124.047 144.661 124.33 144.453 124.663 144.307C125 144.156 125.379 144.081 125.802 144.081C126.228 144.081 126.607 144.156 126.94 144.307C127.277 144.453 127.562 144.661 127.794 144.93C128.027 145.195 128.204 145.508 128.326 145.87C128.448 146.228 128.509 146.616 128.509 147.035V147.159C128.509 147.578 128.448 147.966 128.326 148.324C128.204 148.682 128.027 148.996 127.794 149.264C127.562 149.529 127.279 149.737 126.946 149.887C126.613 150.034 126.235 150.107 125.812 150.107C125.386 150.107 125.005 150.034 124.668 149.887C124.335 149.737 124.053 149.529 123.82 149.264C123.587 148.996 123.41 148.682 123.288 148.324C123.166 147.966 123.105 147.578 123.105 147.159ZM124.4 147.035V147.159C124.4 147.42 124.427 147.667 124.48 147.9C124.534 148.133 124.618 148.337 124.733 148.512C124.847 148.688 124.994 148.826 125.173 148.926C125.352 149.026 125.565 149.076 125.812 149.076C126.052 149.076 126.26 149.026 126.436 148.926C126.615 148.826 126.761 148.688 126.876 148.512C126.991 148.337 127.075 148.133 127.128 147.9C127.186 147.667 127.214 147.42 127.214 147.159V147.035C127.214 146.777 127.186 146.534 127.128 146.305C127.075 146.072 126.989 145.866 126.871 145.687C126.756 145.508 126.609 145.368 126.43 145.268C126.255 145.164 126.045 145.112 125.802 145.112C125.558 145.112 125.347 145.164 125.168 145.268C124.993 145.368 124.847 145.508 124.733 145.687C124.618 145.866 124.534 146.072 124.48 146.305C124.427 146.534 124.4 146.777 124.4 147.035Z" fill="#EFE9E7"/>
</svg>
