<svg width="359" height="189" viewBox="0 0 359 189" fill="none" xmlns="http://www.w3.org/2000/svg">
<g clip-path="url(#clip0_2234_12172)">
<path d="M359 3.13428H0V185.397H359V3.13428Z" fill="#086788"/>
<path d="M162.257 43.5347V64.9115C162.257 65.109 162.178 65.2982 162.039 65.4379C161.899 65.5776 161.71 65.6563 161.513 65.6568H160.983V177.016C160.982 180.097 159.759 183.053 157.582 185.232C155.405 187.411 152.452 188.635 149.374 188.635H79.8531C78.3288 188.635 76.8195 188.334 75.4112 187.75C74.003 187.166 72.7235 186.31 71.6458 185.231C70.5681 184.152 69.7133 182.872 69.1302 181.462C68.5471 180.052 68.2471 178.542 68.2474 177.016V69.5624H67.8637C67.7245 69.5626 67.5908 69.5076 67.4921 69.4094C67.3934 69.3111 67.3375 69.1777 67.3369 69.0384V56.8724C67.3369 56.8032 67.3505 56.7346 67.377 56.6706C67.4034 56.6066 67.4422 56.5485 67.4912 56.4995C67.5401 56.4506 67.5982 56.4117 67.6621 56.3852C67.726 56.3588 67.7945 56.3451 67.8637 56.3451H68.2474V51.7625H67.8604C67.7143 51.762 67.5743 51.7034 67.4713 51.5997C67.3683 51.4959 67.3106 51.3555 67.3109 51.2092V39.2092C67.3113 39.0634 67.3693 38.9238 67.4722 38.8207C67.5752 38.7176 67.7148 38.6595 67.8604 38.6592H68.2474V32.4037H67.8539C67.7898 32.4037 67.7263 32.3912 67.6671 32.3667C67.6079 32.3422 67.5541 32.3062 67.5088 32.2609C67.4635 32.2155 67.4276 32.1617 67.4031 32.1024C67.3786 32.0431 67.366 31.9796 67.3661 31.9155V25.367C67.3658 25.2372 67.417 25.1125 67.5085 25.0203C67.5999 24.9282 67.7241 24.8761 67.8539 24.8756H68.2474V11.616C68.2475 8.53526 69.4703 5.58076 71.6468 3.40236C73.8232 1.22397 76.7751 0.000112208 79.8531 1.18886e-10H149.374C152.452 -1.39273e-05 155.404 1.2237 157.581 3.40203C159.758 5.58036 160.982 8.53492 160.983 11.616V42.7894H161.513C161.71 42.7899 161.899 42.8686 162.039 43.0082C162.178 43.1479 162.257 43.3372 162.257 43.5347Z" fill="#3F3D56"/>
<path opacity="0.1" d="M308.499 3.13428L154.793 108.749L144.302 93.4551L275.754 3.13428H308.499Z" fill="black"/>
<path opacity="0.1" d="M359 3.13428V18.428L142.761 167.008L132.271 151.714L348.513 3.13428H359Z" fill="black"/>
<path opacity="0.1" d="M359 48.1533V70.653L192.006 185.397H159.257L359 48.1533Z" fill="black"/>
<path d="M347.944 188.336H9.81148V188.987H347.944V188.336Z" fill="#3F3D56"/>
<path d="M273.04 135.489L259.252 125.692L249.464 139.492L263.252 149.289L273.04 135.489Z" fill="#F0F0F0"/>
<path d="M263.128 152.847C262.356 152.847 261.601 152.618 260.96 152.189C260.318 151.76 259.818 151.15 259.522 150.436C259.227 149.723 259.15 148.937 259.3 148.18C259.451 147.422 259.823 146.726 260.368 146.18C260.914 145.634 261.609 145.262 262.366 145.111C263.123 144.96 263.908 145.038 264.621 145.333C265.334 145.629 265.943 146.13 266.372 146.772C266.801 147.414 267.03 148.169 267.03 148.942C267.029 149.977 266.617 150.97 265.886 151.702C265.154 152.434 264.162 152.846 263.128 152.847ZM263.128 145.687C262.484 145.687 261.856 145.878 261.321 146.236C260.786 146.593 260.369 147.102 260.123 147.696C259.877 148.291 259.813 148.945 259.938 149.577C260.064 150.208 260.373 150.788 260.828 151.243C261.283 151.698 261.862 152.008 262.493 152.134C263.124 152.259 263.778 152.195 264.372 151.949C264.966 151.702 265.474 151.285 265.831 150.75C266.189 150.215 266.379 149.585 266.379 148.942C266.378 148.079 266.036 147.252 265.426 146.641C264.816 146.031 263.99 145.688 263.128 145.687Z" fill="#3F3D56"/>
<path d="M185.409 32.7492C184.638 32.7492 183.883 32.5202 183.241 32.091C182.6 31.6619 182.1 31.0519 181.804 30.3382C181.509 29.6246 181.432 28.8393 181.582 28.0817C181.733 27.324 182.104 26.6281 182.65 26.0819C183.196 25.5357 183.891 25.1637 184.648 25.013C185.405 24.8623 186.19 24.9397 186.903 25.2353C187.616 25.5309 188.225 26.0315 188.654 26.6738C189.083 27.316 189.311 28.0712 189.311 28.8436C189.31 29.8791 188.899 30.8718 188.167 31.604C187.436 32.3362 186.444 32.7481 185.409 32.7492ZM185.409 25.5889C184.766 25.5889 184.137 25.7798 183.603 26.1374C183.068 26.4951 182.651 27.0034 182.405 27.5981C182.159 28.1928 182.095 28.8472 182.22 29.4786C182.345 30.1099 182.655 30.6898 183.11 31.145C183.565 31.6002 184.144 31.9102 184.775 32.0358C185.406 32.1613 186.06 32.0969 186.654 31.8506C187.248 31.6042 187.756 31.187 188.113 30.6518C188.47 30.1166 188.661 29.4873 188.661 28.8436C188.66 27.9807 188.317 27.1534 187.708 26.5433C187.098 25.9331 186.271 25.5899 185.409 25.5889Z" fill="#F0F0F0"/>
<path d="M45.2481 164.718H44.5978V188.936H45.2481V164.718Z" fill="#3F3D56"/>
<path d="M44.923 168.143C46.8128 168.143 48.3448 166.609 48.3448 164.718C48.3448 162.826 46.8128 161.293 44.923 161.293C43.0332 161.293 41.5012 162.826 41.5012 164.718C41.5012 166.609 43.0332 168.143 44.923 168.143Z" fill="#3F3D56"/>
<path d="M44.923 179.644C44.923 179.644 44.4342 169.121 34.4131 170.345L44.923 179.644Z" fill="#3F3D56"/>
<path d="M117.963 5.9585H106.666C106.21 5.9585 105.84 6.32889 105.84 6.7858V7.76307C105.84 8.21997 106.21 8.59037 106.666 8.59037H117.963C118.419 8.59037 118.789 8.21997 118.789 7.76307V6.7858C118.789 6.32889 118.419 5.9585 117.963 5.9585Z" fill="#E6E8EC"/>
<path d="M122.239 8.76687C123.063 8.76687 123.73 8.09852 123.73 7.27406C123.73 6.4496 123.063 5.78125 122.239 5.78125C121.415 5.78125 120.747 6.4496 120.747 7.27406C120.747 8.09852 121.415 8.76687 122.239 8.76687Z" fill="#E6E8EC"/>
<path d="M155.424 13.9139V177.979C155.423 179.934 154.646 181.808 153.265 183.19C151.884 184.572 150.011 185.348 148.058 185.348H81.5099C80.5425 185.35 79.5842 185.16 78.69 184.791C77.7959 184.421 76.9834 183.878 76.2992 183.194C75.615 182.509 75.0724 181.696 74.7027 180.801C74.333 179.907 74.1433 178.948 74.1445 177.979V13.9139C74.1445 12.9458 74.335 11.9871 74.7051 11.0927C75.0752 10.1983 75.6178 9.38562 76.3017 8.70107C76.9857 8.01652 77.7976 7.47352 78.6912 7.10306C79.5849 6.7326 80.5426 6.54195 81.5099 6.54199H91.4702V7.82109C91.4702 9.43094 92.1092 10.9749 93.2465 12.1132C94.3838 13.2515 95.9264 13.8911 97.5348 13.8911H131.38C132.988 13.8911 134.531 13.2515 135.668 12.1132C136.805 10.9749 137.444 9.43095 137.444 7.82109V6.54199H148.058C149.026 6.54168 149.983 6.73214 150.877 7.1025C151.771 7.47286 152.583 8.01586 153.267 8.70046C153.951 9.38507 154.494 10.1979 154.864 11.0924C155.234 11.9869 155.424 12.9457 155.424 13.9139Z" fill="#086788"/>
<path d="M152.835 54.8838H77.3931V91.6617H152.835V54.8838Z" fill="#3F3D56"/>
<path d="M152.835 116.072H77.3931V152.85H152.835V116.072Z" fill="#3F3D56"/>
<path d="M145.031 33.0773C148.623 33.0773 151.534 30.163 151.534 26.568C151.534 22.9729 148.623 20.0586 145.031 20.0586C141.439 20.0586 138.527 22.9729 138.527 26.568C138.527 30.163 141.439 33.0773 145.031 33.0773Z" fill="white"/>
<path d="M147.957 26.3586H145.24V23.6387H144.822V26.3586H142.104V26.7772H144.822V29.4971H145.24V26.7772H147.957V26.3586Z" fill="#3F3D56"/>
<path d="M107.768 80.1369C109.743 87.4437 116.507 91.969 116.507 91.969C116.507 91.969 120.07 84.6476 118.095 77.3409C116.12 70.0341 109.355 65.5088 109.355 65.5088C109.355 65.5088 105.793 72.8302 107.768 80.1369Z" fill="white"/>
<path d="M110.67 78.5667C116.089 83.8466 116.751 91.9631 116.751 91.9631C116.751 91.9631 108.627 91.5191 103.207 86.2392C97.7884 80.9593 97.1265 72.8428 97.1265 72.8428C97.1265 72.8428 105.251 73.2867 110.67 78.5667Z" fill="#086788"/>
<path d="M107.768 141.325C109.743 148.632 116.507 153.158 116.507 153.158C116.507 153.158 120.07 145.836 118.095 138.529C116.12 131.223 109.355 126.697 109.355 126.697C109.355 126.697 105.793 134.019 107.768 141.325Z" fill="white"/>
<path d="M110.67 139.755C116.089 145.035 116.751 153.152 116.751 153.152C116.751 153.152 108.627 152.708 103.207 147.428C97.7884 142.148 97.1265 134.031 97.1265 134.031C97.1265 134.031 105.251 134.475 110.67 139.755Z" fill="#086788"/>
<path d="M125.734 141.325C123.759 148.632 116.994 153.158 116.994 153.158C116.994 153.158 113.432 145.836 115.407 138.529C117.382 131.223 124.146 126.697 124.146 126.697C124.146 126.697 127.709 134.019 125.734 141.325Z" fill="white"/>
<path d="M122.832 139.755C117.413 145.035 116.751 153.152 116.751 153.152C116.751 153.152 124.875 152.708 130.294 147.428C135.713 142.148 136.375 134.031 136.375 134.031C136.375 134.031 128.251 134.475 122.832 139.755Z" fill="#086788"/>
<path d="M317.377 39.3529H310.957V32.9277H317.377V39.3529ZM311.451 38.8586H316.883V33.422H311.451V38.8586Z" fill="#3F3D56"/>
<path d="M321.163 184.864L316.785 180.165L321.479 175.783L325.858 180.481L321.163 184.864ZM317.482 180.189L321.187 184.165L325.16 180.457L321.455 176.481L317.482 180.189Z" fill="#F0F0F0"/>
<path d="M44.6507 36.2524C46.4607 36.2524 47.928 34.7838 47.928 32.9722C47.928 31.1605 46.4607 29.6919 44.6507 29.6919C42.8406 29.6919 41.3733 31.1605 41.3733 32.9722C41.3733 34.7838 42.8406 36.2524 44.6507 36.2524Z" fill="#F0F0F0"/>
<path d="M44.6507 42.4488C42.7781 42.4488 40.9475 41.893 39.3905 40.8517C37.8335 39.8105 36.62 38.3305 35.9034 36.5989C35.1868 34.8673 34.9993 32.9619 35.3646 31.1237C35.7299 29.2855 36.6317 27.5969 37.9558 26.2717C39.2799 24.9464 40.9669 24.0438 42.8035 23.6782C44.6402 23.3125 46.5438 23.5002 48.2739 24.2174C50.0039 24.9347 51.4826 26.1493 52.523 27.7077C53.5633 29.266 54.1186 31.0982 54.1186 32.9724C54.1158 35.4849 53.1174 37.8936 51.3424 39.6701C49.5674 41.4467 47.1609 42.446 44.6507 42.4488ZM44.6507 24.2251C42.9221 24.2251 41.2324 24.7381 39.7952 25.6993C38.3579 26.6604 37.2377 28.0266 36.5763 29.625C35.9148 31.2233 35.7417 32.9822 36.0789 34.679C36.4161 36.3758 37.2485 37.9344 38.4708 39.1578C39.693 40.3811 41.2503 41.2142 42.9456 41.5518C44.641 41.8893 46.3982 41.7161 47.9952 41.054C49.5921 40.3919 50.9571 39.2707 51.9174 37.8322C52.8777 36.3937 53.3903 34.7025 53.3903 32.9724C53.3877 30.6533 52.466 28.4299 50.8276 26.79C49.1892 25.1502 46.9677 24.2277 44.6507 24.2251Z" fill="#2F2E41"/>
<path d="M316.726 69.8555H210.067V78.6431H316.726V69.8555Z" fill="#F0F0F0"/>
<path d="M303.231 90.3599H223.562V93.7633H303.231V90.3599Z" fill="#F0F0F0"/>
<path d="M303.231 95.8433H223.562V99.2467H303.231V95.8433Z" fill="#F0F0F0"/>
<path d="M303.231 101.327H223.562V104.73H303.231V101.327Z" fill="#F0F0F0"/>
<path d="M303.231 106.81H223.562V110.214H303.231V106.81Z" fill="#F0F0F0"/>
</g>
<defs>
<clipPath id="clip0_2234_12172">
<rect width="359" height="189" fill="white"/>
</clipPath>
</defs>
</svg>
